<?xml version="1.0" standalone="no"?>
<!DOCTYPE svg PUBLIC "-//W3C//DTD SVG 20010904//EN"
 "http://www.w3.org/TR/2001/REC-SVG-20010904/DTD/svg10.dtd">
<svg version="1.0" xmlns="http://www.w3.org/2000/svg"
 width="360.000000pt" height="360.000000pt" viewBox="0 0 360.000000 360.000000"
 preserveAspectRatio="xMidYMid meet">
<metadata>
Created by potrace 1.14, written by Peter Selinger 2001-2017
</metadata>
<g transform="translate(0.000000,360.000000) scale(0.100000,-0.100000)"
fill="#000000" stroke="none">
<path d="M920 3549 c-149 -111 -235 -257 -244 -416 -2 -35 -12 -51 -59 -103
-139 -150 -246 -350 -272 -510 -4 -25 -9 -54 -12 -65 -7 -33 -4 -227 5 -270 7
-36 10 -40 39 -42 146 -7 230 -139 259 -403 3 -30 8 -58 10 -61 2 -4 25 -7 51
-8 113 -2 238 -54 300 -125 46 -52 60 -91 58 -164 l-2 -54 54 -24 c99 -43 276
-96 371 -110 20 -3 43 -7 50 -10 30 -9 184 -19 312 -19 220 1 371 26 579 95
145 48 142 45 145 121 4 102 49 170 145 219 45 22 141 48 196 51 59 4 71 13
73 56 1 21 4 49 7 63 3 14 7 41 10 60 31 190 118 287 265 294 33 1 35 3 47 55
11 51 11 281 0 326 -57 229 -135 375 -286 535 -33 35 -61 69 -62 75 0 5 -2 19
-4 30 -2 11 -6 37 -9 57 -23 144 -122 286 -258 366 l-42 25 21 -29 c27 -38 53
-91 59 -117 9 -39 17 -177 11 -177 -3 0 -28 13 -54 28 -91 53 -297 135 -402
158 -176 39 -244 47 -436 48 -181 1 -273 -4 -338 -19 -12 -3 -33 -7 -47 -9
-133 -22 -298 -79 -451 -156 l-117 -58 4 81 c4 92 22 154 60 204 14 19 24 36
22 38 -2 2 -28 -14 -58 -36z m1039 -273 c76 -6 191 -25 191 -33 0 -2 -54 -83
-121 -181 -67 -97 -144 -212 -173 -254 -28 -43 -54 -78 -57 -78 -6 0 -95 159
-206 370 -25 47 -54 99 -64 117 l-20 31 53 12 c29 6 93 13 143 17 49 3 91 6
92 7 2 2 58 -1 162 -8z m534 -162 c53 -27 150 -95 187 -131 19 -18 37 -33 41
-33 4 0 14 -11 23 -24 15 -24 12 -32 -166 -338 -100 -172 -221 -380 -269 -461
l-87 -149 -104 183 -104 183 -212 -1 c-117 0 -214 -2 -216 -4 -2 -2 -39 -62
-82 -134 -43 -71 -88 -145 -100 -163 l-22 -32 -49 87 c-79 143 -95 170 -201
354 -110 192 -119 207 -200 353 l-56 100 55 49 c64 58 187 147 203 147 6 0 54
-69 107 -153 53 -84 154 -242 224 -353 l128 -200 214 0 214 1 104 175 c57 96
110 186 118 200 7 14 51 88 97 165 46 77 90 152 99 167 19 33 14 32 54 12z
m501 -653 c20 -89 13 -247 -14 -341 -53 -185 -179 -365 -345 -492 -65 -49
-236 -150 -243 -144 -3 4 77 163 188 371 44 83 134 254 217 415 83 160 153
292 160 304 7 11 16 -16 37 -113z m-2297 82 c5 -15 258 -495 378 -718 18 -33
56 -105 85 -160 29 -55 64 -119 76 -143 l24 -42 -69 35 c-336 169 -549 482
-549 809 0 93 24 236 40 236 5 0 12 -8 15 -17z m498 -454 c28 -21 61 -49 74
-63 23 -24 23 -24 2 -31 -51 -16 -78 -99 -50 -157 30 -63 121 -94 191 -65 l36
15 31 -76 c40 -99 40 -106 -1 -98 -18 4 -44 9 -58 12 -43 8 -63 15 -129 47
-106 51 -197 157 -216 254 -11 58 -6 159 11 216 5 17 7 17 32 1 15 -9 50 -34
77 -55z m1345 1 c38 -177 -47 -342 -217 -422 -104 -49 -232 -76 -220 -45 3 6
17 44 32 82 16 39 29 71 30 72 1 2 22 -4 47 -13 37 -12 55 -13 86 -5 52 15 99
63 107 111 8 45 -5 75 -47 111 l-31 26 56 47 c51 45 124 95 138 96 4 0 12 -27
19 -60z m-692 -272 c22 -40 63 -118 92 -173 29 -55 70 -133 92 -173 21 -40 37
-76 33 -81 -16 -27 -336 -31 -480 -6 -83 14 -89 -9 73 260 81 134 148 245 149
245 1 0 19 -33 41 -72z"/>
<path d="M312 2070 c-95 -58 -107 -257 -27 -461 l14 -36 -59 -51 c-77 -68
-104 -124 -104 -217 0 -130 47 -216 141 -257 24 -10 44 -22 44 -26 1 -4 2 -35
3 -70 1 -42 6 -66 15 -71 26 -16 96 3 216 59 76 35 117 47 195 56 180 21 248
45 273 96 8 17 13 38 12 47 -2 9 -4 22 -4 29 -1 7 -16 12 -40 12 -37 0 -58 13
-56 35 0 6 13 32 29 59 72 120 32 242 -99 302 -61 28 -87 33 -190 40 -44 3
-81 7 -82 8 -1 1 -4 26 -7 56 -20 214 -47 304 -108 363 -53 51 -111 60 -166
27z"/>
<path d="M3170 2049 c-19 -12 -41 -29 -48 -38 -23 -29 -59 -115 -67 -161 -4
-25 -9 -54 -11 -65 -5 -24 -12 -96 -16 -147 l-2 -38 -51 0 c-219 -2 -358 -90
-358 -229 -1 -45 22 -110 50 -143 18 -20 13 -63 -7 -64 -8 -1 -30 -2 -48 -3
l-34 -1 4 -45 c6 -54 20 -73 74 -97 37 -16 78 -23 239 -44 44 -5 104 -23 120
-34 20 -14 162 -69 203 -78 60 -14 71 -2 74 82 l3 68 40 16 c82 33 126 95 141
199 20 136 -28 238 -148 314 -6 4 1 39 16 88 33 104 38 131 41 211 2 83 -16
146 -54 189 -40 45 -108 53 -161 20z"/>
<path d="M1352 1109 c24 -136 90 -161 161 -61 25 34 29 47 21 60 -17 27 -63
45 -130 50 l-62 4 10 -53z"/>
<path d="M2054 1117 c-28 -16 -23 -37 21 -90 70 -84 109 -79 139 18 25 79 21
85 -66 85 -40 -1 -83 -6 -94 -13z"/>
<path d="M1238 1079 c-14 -8 -18 -24 -18 -79 0 -38 4 -80 9 -93 l10 -25 -87
-2 c-107 -1 -126 -4 -195 -24 -180 -52 -392 -190 -572 -370 -125 -126 -169
-202 -170 -292 0 -51 4 -66 28 -97 30 -39 87 -70 158 -86 44 -10 189 -8 225 2
10 3 37 8 59 12 130 18 263 53 391 101 192 71 321 149 430 258 104 104 114
128 117 285 2 125 1 130 -22 155 -14 14 -33 26 -43 26 -30 0 -21 17 19 37 67
32 68 113 1 137 -22 8 -33 2 -89 -43 -35 -28 -73 -51 -85 -51 -22 0 -76 69
-105 133 -13 28 -32 33 -61 16z"/>
<path d="M2267 1027 c-12 -13 -31 -35 -42 -51 -32 -44 -89 -46 -164 -7 -48 25
-65 29 -84 22 -32 -12 -38 -32 -16 -51 16 -15 23 -38 20 -67 -2 -19 -25 -16
-54 7 -25 20 -28 20 -57 5 -43 -22 -105 -80 -131 -122 -25 -40 -34 -147 -18
-210 59 -230 314 -398 649 -427 77 -7 728 -7 770 0 109 17 199 74 220 140 67
201 -234 433 -752 579 -48 14 -95 26 -105 28 -10 2 -44 9 -75 17 -51 12 -56
15 -48 34 6 18 7 45 1 79 0 4 -10 16 -21 27 -27 27 -66 25 -93 -3z"/>
<path d="M655 928 c-55 -17 -102 -33 -105 -35 -3 -3 14 -22 37 -44 30 -28 51
-39 73 -39 47 0 99 26 110 55 14 38 13 95 -2 94 -7 0 -58 -15 -113 -31z"/>
<path d="M2836 931 c-5 -8 -3 -24 9 -82 7 -30 52 -54 107 -57 30 -2 43 4 72
34 31 32 44 54 33 54 -2 0 -48 13 -103 30 -111 33 -111 33 -118 21z"/>
</g>
</svg>
